<?xml version="1.0" encoding="utf-8"?>
<!-- Generator: Adobe Illustrator 27.5.0, SVG Export Plug-In . SVG Version: 6.00 Build 0)  -->
<svg version="1.1" id="Layer_1" xmlns="http://www.w3.org/2000/svg" xmlns:xlink="http://www.w3.org/1999/xlink" x="0px" y="0px"
	 viewBox="0 0 150 150" style="enable-background:new 0 0 150 150;" xml:space="preserve">
<style type="text/css">
	.st0{fill:#E88EE8;}
	.st1{fill:none;}
	.st2{fill:#231F20;}
	.st3{display:none;enable-background:new    ;}
	.st4{font-family:'ArialMT';}
	.st5{font-size:88.89px;}
	.st6{display:none;fill:#FFFFFF;stroke:#FFFFFF;stroke-miterlimit:10;}
	.st7{display:none;fill:none;stroke:#FFFFFF;stroke-miterlimit:10;}
	.st8{fill:none;stroke:#170200;stroke-width:0.6775;stroke-miterlimit:10;}
</style>
<g>
	<rect x="10" y="10" class="st0" width="130" height="130"/>
	<g>
		<g>
			<g>
				<g>
					<g>
						<rect x="2.5" y="119.7" class="st1" width="15" height="12.8"/>
					</g>
					<rect x="9.5" y="120.7" class="st2" width="1.5" height="2.4"/>
					<rect x="9.5" y="124.9" class="st2" width="1.5" height="2.4"/>
					<rect x="9.5" y="129.2" class="st2" width="1.5" height="2.4"/>
				</g>
			</g>
			<g>
				<g>
					<g>
						<rect x="2.5" y="106.9" class="st1" width="15" height="12.8"/>
					</g>
					<rect x="9.5" y="107.9" class="st2" width="1.5" height="2.4"/>
					<rect x="9.5" y="112.1" class="st2" width="1.5" height="2.4"/>
					<rect x="9.5" y="116.4" class="st2" width="1.5" height="2.4"/>
				</g>
			</g>
			<g>
				<g>
					<g>
						<rect x="2.5" y="94.2" class="st1" width="15" height="12.8"/>
					</g>
					<rect x="9.5" y="95.1" class="st2" width="1.5" height="2.4"/>
					<rect x="9.5" y="99.4" class="st2" width="1.5" height="2.4"/>
					<rect x="9.5" y="103.6" class="st2" width="1.5" height="2.4"/>
				</g>
			</g>
			<g>
				<g>
					<g>
						<rect x="2.5" y="81.4" class="st1" width="15" height="12.8"/>
					</g>
					<rect x="9.5" y="82.3" class="st2" width="1.5" height="2.4"/>
					<rect x="9.5" y="86.6" class="st2" width="1.5" height="2.4"/>
					<rect x="9.5" y="90.8" class="st2" width="1.5" height="2.4"/>
				</g>
			</g>
			<g>
				<g>
					<g>
						<rect x="2.5" y="68.6" class="st1" width="15" height="12.8"/>
					</g>
					<rect x="9.5" y="69.6" class="st2" width="1.5" height="2.4"/>
					<rect x="9.5" y="73.8" class="st2" width="1.5" height="2.4"/>
					<rect x="9.5" y="78" class="st2" width="1.5" height="2.4"/>
				</g>
			</g>
			<g>
				<g>
					<g>
						<rect x="2.5" y="55.8" class="st1" width="15" height="12.8"/>
					</g>
					<rect x="9.5" y="56.8" class="st2" width="1.5" height="2.4"/>
					<rect x="9.5" y="61" class="st2" width="1.5" height="2.4"/>
					<rect x="9.5" y="65.3" class="st2" width="1.5" height="2.4"/>
				</g>
			</g>
			<g>
				<g>
					<g>
						<rect x="2.5" y="43.1" class="st1" width="15" height="12.8"/>
					</g>
					<rect x="9.5" y="44" class="st2" width="1.5" height="2.4"/>
					<rect x="9.5" y="48.3" class="st2" width="1.5" height="2.4"/>
					<rect x="9.5" y="52.5" class="st2" width="1.5" height="2.4"/>
				</g>
			</g>
			<g>
				<g>
					<g>
						<rect x="2.5" y="30.3" class="st1" width="15" height="12.8"/>
					</g>
					<rect x="9.5" y="31.2" class="st2" width="1.5" height="2.4"/>
					<rect x="9.5" y="35.5" class="st2" width="1.5" height="2.4"/>
					<rect x="9.5" y="39.7" class="st2" width="1.5" height="2.4"/>
				</g>
			</g>
			<g>
				<g>
					<g>
						<rect x="2.5" y="17.5" class="st1" width="15" height="12.8"/>
					</g>
					<rect x="9.5" y="18.4" class="st2" width="1.5" height="2.4"/>
					<rect x="9.5" y="22.7" class="st2" width="1.5" height="2.4"/>
					<rect x="9.5" y="26.9" class="st2" width="1.5" height="2.4"/>
				</g>
			</g>
			<g>
				<g>
					<g>
						<rect x="17.5" y="2.5" class="st1" width="12.8" height="15"/>
					</g>
					<rect x="27" y="9.5" class="st2" width="2.4" height="1.5"/>
					<rect x="22.7" y="9.5" class="st2" width="2.4" height="1.5"/>
					<rect x="18.5" y="9.5" class="st2" width="2.4" height="1.5"/>
				</g>
			</g>
			<g>
				<g>
					<g>
						<rect x="30.3" y="2.5" class="st1" width="12.8" height="15"/>
					</g>
					<rect x="39.7" y="9.5" class="st2" width="2.4" height="1.5"/>
					<rect x="35.5" y="9.5" class="st2" width="2.4" height="1.5"/>
					<rect x="31.2" y="9.5" class="st2" width="2.4" height="1.5"/>
				</g>
			</g>
			<g>
				<g>
					<g>
						<rect x="43.1" y="2.5" class="st1" width="12.8" height="15"/>
					</g>
					<rect x="52.5" y="9.5" class="st2" width="2.4" height="1.5"/>
					<rect x="48.3" y="9.5" class="st2" width="2.4" height="1.5"/>
					<rect x="44" y="9.5" class="st2" width="2.4" height="1.5"/>
				</g>
			</g>
			<g>
				<g>
					<g>
						<rect x="55.8" y="2.5" class="st1" width="12.8" height="15"/>
					</g>
					<rect x="65.3" y="9.5" class="st2" width="2.4" height="1.5"/>
					<rect x="61" y="9.5" class="st2" width="2.4" height="1.5"/>
					<rect x="56.8" y="9.5" class="st2" width="2.4" height="1.5"/>
				</g>
			</g>
			<g>
				<g>
					<g>
						<rect x="68.6" y="2.5" class="st1" width="12.8" height="15"/>
					</g>
					<rect x="78.1" y="9.5" class="st2" width="2.4" height="1.5"/>
					<rect x="73.8" y="9.5" class="st2" width="2.4" height="1.5"/>
					<rect x="69.6" y="9.5" class="st2" width="2.4" height="1.5"/>
				</g>
			</g>
			<g>
				<g>
					<g>
						<rect x="81.4" y="2.5" class="st1" width="12.8" height="15"/>
					</g>
					<rect x="90.9" y="9.5" class="st2" width="2.4" height="1.5"/>
					<rect x="86.6" y="9.5" class="st2" width="2.4" height="1.5"/>
					<rect x="82.4" y="9.5" class="st2" width="2.4" height="1.5"/>
				</g>
			</g>
			<g>
				<g>
					<g>
						<rect x="94.2" y="2.5" class="st1" width="12.8" height="15"/>
					</g>
					<rect x="103.6" y="9.5" class="st2" width="2.4" height="1.5"/>
					<rect x="99.4" y="9.5" class="st2" width="2.4" height="1.5"/>
					<rect x="95.1" y="9.5" class="st2" width="2.4" height="1.5"/>
				</g>
			</g>
			<g>
				<g>
					<g>
						<rect x="106.9" y="2.5" class="st1" width="12.8" height="15"/>
					</g>
					<rect x="116.4" y="9.5" class="st2" width="2.4" height="1.5"/>
					<rect x="112.2" y="9.5" class="st2" width="2.4" height="1.5"/>
					<rect x="107.9" y="9.5" class="st2" width="2.4" height="1.5"/>
				</g>
			</g>
			<g>
				<g>
					<g>
						<rect x="119.7" y="2.5" class="st1" width="12.8" height="15"/>
					</g>
					<rect x="129.2" y="9.5" class="st2" width="2.4" height="1.5"/>
					<rect x="124.9" y="9.5" class="st2" width="2.4" height="1.5"/>
					<rect x="120.7" y="9.5" class="st2" width="2.4" height="1.5"/>
				</g>
			</g>
			<g>
				<g>
					<g>
						<rect x="132.5" y="17.5" class="st1" width="15" height="12.8"/>
					</g>
					<rect x="139" y="27" class="st2" width="1.5" height="2.4"/>
					<rect x="139" y="22.7" class="st2" width="1.5" height="2.4"/>
					<rect x="139" y="18.5" class="st2" width="1.5" height="2.4"/>
				</g>
			</g>
			<g>
				<g>
					<g>
						<rect x="132.5" y="30.3" class="st1" width="15" height="12.8"/>
					</g>
					<rect x="139" y="39.7" class="st2" width="1.5" height="2.4"/>
					<rect x="139" y="35.5" class="st2" width="1.5" height="2.4"/>
					<rect x="139" y="31.2" class="st2" width="1.5" height="2.4"/>
				</g>
			</g>
			<g>
				<g>
					<g>
						<rect x="132.5" y="43.1" class="st1" width="15" height="12.8"/>
					</g>
					<rect x="139" y="52.5" class="st2" width="1.5" height="2.4"/>
					<rect x="139" y="48.3" class="st2" width="1.5" height="2.4"/>
					<rect x="139" y="44" class="st2" width="1.5" height="2.4"/>
				</g>
			</g>
			<g>
				<g>
					<g>
						<rect x="132.5" y="55.8" class="st1" width="15" height="12.8"/>
					</g>
					<rect x="139" y="65.3" class="st2" width="1.5" height="2.4"/>
					<rect x="139" y="61" class="st2" width="1.5" height="2.4"/>
					<rect x="139" y="56.8" class="st2" width="1.5" height="2.4"/>
				</g>
			</g>
			<g>
				<g>
					<g>
						<rect x="132.5" y="68.6" class="st1" width="15" height="12.8"/>
					</g>
					<rect x="139" y="78.1" class="st2" width="1.5" height="2.4"/>
					<rect x="139" y="73.8" class="st2" width="1.5" height="2.4"/>
					<rect x="139" y="69.6" class="st2" width="1.5" height="2.4"/>
				</g>
			</g>
			<g>
				<g>
					<g>
						<rect x="132.5" y="81.4" class="st1" width="15" height="12.8"/>
					</g>
					<rect x="139" y="90.9" class="st2" width="1.5" height="2.4"/>
					<rect x="139" y="86.6" class="st2" width="1.5" height="2.4"/>
					<rect x="139" y="82.4" class="st2" width="1.5" height="2.4"/>
				</g>
			</g>
			<g>
				<g>
					<g>
						<rect x="132.5" y="94.2" class="st1" width="15" height="12.8"/>
					</g>
					<rect x="139" y="103.6" class="st2" width="1.5" height="2.4"/>
					<rect x="139" y="99.4" class="st2" width="1.5" height="2.4"/>
					<rect x="139" y="95.1" class="st2" width="1.5" height="2.4"/>
				</g>
			</g>
			<g>
				<g>
					<g>
						<rect x="132.5" y="106.9" class="st1" width="15" height="12.8"/>
					</g>
					<rect x="139" y="116.4" class="st2" width="1.5" height="2.4"/>
					<rect x="139" y="112.2" class="st2" width="1.5" height="2.4"/>
					<rect x="139" y="107.9" class="st2" width="1.5" height="2.4"/>
				</g>
			</g>
			<g>
				<g>
					<g>
						<rect x="132.5" y="119.7" class="st1" width="15" height="12.8"/>
					</g>
					<rect x="139" y="129.2" class="st2" width="1.5" height="2.4"/>
					<rect x="139" y="124.9" class="st2" width="1.5" height="2.4"/>
					<rect x="139" y="120.7" class="st2" width="1.5" height="2.4"/>
				</g>
			</g>
			<g>
				<g>
					<g>
						<rect x="119.7" y="132.5" class="st1" width="12.8" height="15"/>
					</g>
					<rect x="120.7" y="139" class="st2" width="2.4" height="1.5"/>
					<rect x="124.9" y="139" class="st2" width="2.4" height="1.5"/>
					<rect x="129.2" y="139" class="st2" width="2.4" height="1.5"/>
				</g>
			</g>
			<g>
				<g>
					<g>
						<rect x="106.9" y="132.5" class="st1" width="12.8" height="15"/>
					</g>
					<rect x="107.9" y="139" class="st2" width="2.4" height="1.5"/>
					<rect x="112.1" y="139" class="st2" width="2.4" height="1.5"/>
					<rect x="116.4" y="139" class="st2" width="2.4" height="1.5"/>
				</g>
			</g>
			<g>
				<g>
					<g>
						<rect x="94.2" y="132.5" class="st1" width="12.8" height="15"/>
					</g>
					<rect x="95.1" y="139" class="st2" width="2.4" height="1.5"/>
					<rect x="99.4" y="139" class="st2" width="2.4" height="1.5"/>
					<rect x="103.6" y="139" class="st2" width="2.4" height="1.5"/>
				</g>
			</g>
			<g>
				<g>
					<g>
						<rect x="81.4" y="132.5" class="st1" width="12.8" height="15"/>
					</g>
					<rect x="82.3" y="139" class="st2" width="2.4" height="1.5"/>
					<rect x="86.6" y="139" class="st2" width="2.4" height="1.5"/>
					<rect x="90.8" y="139" class="st2" width="2.4" height="1.5"/>
				</g>
			</g>
			<g>
				<g>
					<g>
						<rect x="68.6" y="132.5" class="st1" width="12.8" height="15"/>
					</g>
					<rect x="69.6" y="139" class="st2" width="2.4" height="1.5"/>
					<rect x="73.8" y="139" class="st2" width="2.4" height="1.5"/>
					<rect x="78" y="139" class="st2" width="2.4" height="1.5"/>
				</g>
			</g>
			<g>
				<g>
					<g>
						<rect x="55.8" y="132.5" class="st1" width="12.8" height="15"/>
					</g>
					<rect x="56.8" y="139" class="st2" width="2.4" height="1.5"/>
					<rect x="61" y="139" class="st2" width="2.4" height="1.5"/>
					<rect x="65.3" y="139" class="st2" width="2.4" height="1.5"/>
				</g>
			</g>
			<g>
				<g>
					<g>
						<rect x="43.1" y="132.5" class="st1" width="12.8" height="15"/>
					</g>
					<rect x="44" y="139" class="st2" width="2.4" height="1.5"/>
					<rect x="48.3" y="139" class="st2" width="2.4" height="1.5"/>
					<rect x="52.5" y="139" class="st2" width="2.4" height="1.5"/>
				</g>
			</g>
			<g>
				<g>
					<g>
						<rect x="30.3" y="132.5" class="st1" width="12.8" height="15"/>
					</g>
					<rect x="31.2" y="139" class="st2" width="2.4" height="1.5"/>
					<rect x="35.5" y="139" class="st2" width="2.4" height="1.5"/>
					<rect x="39.7" y="139" class="st2" width="2.4" height="1.5"/>
				</g>
			</g>
			<g>
				<g>
					<g>
						<rect x="17.5" y="132.5" class="st1" width="12.8" height="15"/>
					</g>
					<rect x="18.4" y="139" class="st2" width="2.4" height="1.5"/>
					<rect x="22.7" y="139" class="st2" width="2.4" height="1.5"/>
					<rect x="26.9" y="139" class="st2" width="2.4" height="1.5"/>
				</g>
			</g>
			<g>
				<rect x="9.4" y="14" class="st2" width="1.5" height="2.5"/>
				<polygon class="st2" points="9.4,9.5 9.4,12 10.9,12 10.9,11 11.9,11 11.9,9.5 				"/>
				<rect x="13.9" y="9.5" class="st2" width="2.5" height="1.5"/>
			</g>
			<g>
				<rect x="133.5" y="9.4" class="st2" width="2.5" height="1.5"/>
				<polygon class="st2" points="140.5,9.4 138,9.4 138,10.9 139,10.9 139,11.9 140.5,11.9 				"/>
				<rect x="139" y="13.9" class="st2" width="1.5" height="2.5"/>
			</g>
			<g>
				<rect x="139.1" y="133.5" class="st2" width="1.5" height="2.5"/>
				<polygon class="st2" points="140.6,140.5 140.6,138 139.1,138 139.1,139 138.1,139 138.1,140.5 				"/>
				<rect x="133.6" y="139" class="st2" width="2.5" height="1.5"/>
			</g>
			<g>
				<rect x="14" y="139.1" class="st2" width="2.5" height="1.5"/>
				<polygon class="st2" points="9.5,140.6 12,140.6 12,139.1 11,139.1 11,138.1 9.5,138.1 				"/>
				<rect x="9.5" y="133.6" class="st2" width="1.5" height="2.5"/>
			</g>
		</g>
	</g>
</g>
<text transform="matrix(1 0 0 1 51.5002 107.7447)" class="st3 st4 st5">?</text>
<polygon class="st6" points="75.2,54.9 100.2,36.5 96.9,67.3 125.3,79.8 97,92.3 100.4,123.1 75.4,104.9 50.4,123.3 53.7,92.5 
	25.3,80 53.6,67.5 50.2,36.7 "/>
<polyline class="st7" points="90.5,22.3 75.3,38.7 59.6,24.1 "/>
<polyline class="st7" points="91.5,131.6 75.4,116.7 59.8,133.5 "/>
<line class="st7" x1="75.3" y1="9.9" x2="75.3" y2="140.9"/>
<polyline class="st7" points="130.2,66.5 108.4,61.2 113.5,40.4 "/>
<polyline class="st7" points="35.2,120.8 40.4,99.5 18.1,94.1 "/>
<line class="st7" x1="133.5" y1="47.2" x2="19.3" y2="111.2"/>
<polyline class="st7" points="116.2,119.2 108.9,98 129.2,91 "/>
<polyline class="st7" points="19.3,68.5 40,61.3 32.5,39.7 "/>
<line class="st7" x1="134.3" y1="111.6" x2="18.7" y2="49.8"/>
<path class="st8" d="M115.2,31.7c-5.4-5.4-151.7-10.8-82.2,0s109.3-1.8,87.6-6.3s-144.5,2.7-92.1,10.8s135.5-5.4,92.1-6.3
	S4.1,34.4,24,40.7s113.8,3.6,92.1-1.8s-100.3-3.6-80.4,1.8s81.3,2.7,70.5,0s-96.6-1.8-70.5,5.4s91.2,4.5,75,2.7S0.5,49.7,37.6,54.3
	s87.6,0.9,62.3,0s-84-3.6-57.8,5.4s80.4-2.7,60.5-1.8s-88.5,0-55.1,8.1s75-2.7,52.4-2.7s-66,0.9-49.7,7.2
	c16.3,6.3,70.5,3.6,52.4-1.8s-73.2-0.9-53.3,5.4s72.3-3.6,47.9-3.6S26.7,75,46.6,81.4s70.5-4.5,56-5.4s-70.5,2.7-49.7,9.9
	s55.1-1.8,43.4-2.7s-58.7,0.9-40.7,8.1c18.1,7.2,57.8-0.9,38.8-2.7c-19-1.8-51.5,1.8-37,8.1s48.8,5.4,37.9-1.8
	c-10.8-7.2-51.5-0.9-36.1,6.3c15.4,7.2,47.9-5.4,33.4-3.6s-46.1,3.6-33.4,9s50.6,0.9,32.5,0S52.9,107.5,61,112s41.6,4.5,30.7,1.8
	s-35.2,0-27.1,5.4s31.6,3.6,25.3,0s-31.6-2.7-22.6,3.6s29.8,3.6,21.7,1.8c-8.1-1.8-29.8,0.9-18.1,6.3"/>
<path class="st8" d="M120.1,31.7c-5.4-5.4-151.7-10.8-82.2,0s109.3-1.8,87.6-6.3S-19,28.1,33.4,36.2s135.5-5.4,92.1-6.3
	S9,34.4,28.8,40.7s113.8,3.6,92.1-1.8s-100.2-3.6-80.3,1.8s81.3,2.7,70.5,0s-96.7-1.8-70.5,5.4s91.2,4.5,75,2.7S5.4,49.7,42.4,54.3
	s87.6,0.9,62.3,0s-84-3.6-57.8,5.4s80.4-2.7,60.5-1.8s-88.5,0-55.1,8.1s75-2.7,52.4-2.7S38.8,64.2,55,70.5
	c16.2,6.3,70.5,3.6,52.4-1.8s-73.2-0.9-53.3,5.4s72.3-3.6,47.9-3.6S31.6,75,51.4,81.4s70.5-4.5,56-5.4s-70.5,2.7-49.7,9.9
	s55.1-1.8,43.4-2.7s-58.7,0.9-40.6,8.1s57.8-0.9,38.8-2.7c-19-1.8-51.5,1.8-37,8.1s48.8,5.4,37.9-1.8c-10.8-7.2-51.5-0.9-36.1,6.3
	c15.4,7.2,47.9-5.4,33.4-3.6s-46.1,3.6-33.4,9s50.6,0.9,32.5,0s-38.8,0.9-30.7,5.4s41.6,4.5,30.7,1.8s-35.2,0-27.1,5.4
	s31.6,3.6,25.3,0s-31.6-2.7-22.6,3.6s29.8,3.6,21.7,1.8c-8.1-1.8-29.8,0.9-18.1,6.3"/>
<path class="st8" d="M113.3,32.6c-5.4-5.4-151.7-10.8-82.2,0s109.3-1.8,87.6-6.3S-25.8,29,26.6,37.2s135.5-5.4,92.1-6.3
	S2.2,35.4,22.1,41.7s113.8,3.6,92.1-1.8s-100.3-3.6-80.4,1.8s81.3,2.7,70.5,0C93.4,39,7.6,39.9,33.8,47.1s91.2,4.5,75,2.7
	s-110.2,0.9-73.2,5.4s87.6,0.9,62.3,0s-84-3.6-57.8,5.4s80.4-2.7,60.5-1.8s-88.5,0-55.1,8.1s75-2.7,52.4-2.7s-65.9,1-49.6,7.3
	c16.3,6.3,70.5,3.6,52.4-1.8s-73.2-0.9-53.3,5.4s72.2-3.6,47.8-3.6S24.8,76,44.6,82.3s70.5-4.5,56-5.4s-70.5,2.7-49.7,9.9
	S106,85,94.3,84.1c-11.7-0.9-58.7,0.9-40.6,8.2s57.8-0.9,38.8-2.7c-19-1.8-51.5,1.8-37,8.1s48.8,5.4,37.9-1.8s-51.5-0.9-36.1,6.3
	s47.9-5.4,33.4-3.6s-46.1,3.6-33.4,9c12.6,5.4,50.6,0.9,32.5,0S51,108.5,59.1,113s41.6,4.5,30.7,1.8s-35.2,0-27.1,5.4
	s31.6,3.6,25.3,0s-31.6-2.7-22.6,3.6s29.8,3.6,21.7,1.8c-8.1-1.8-29.8,0.9-18.1,6.3"/>
<path class="st8" d="M113.3,31.7c-5.4-5.4-151.7-10.8-82.2,0s109.3-1.8,87.6-6.3s-144.5,2.7-92.1,10.8s135.5-5.4,92.1-6.3
	S2.2,34.4,22.1,40.7s113.8,3.6,92.1-1.8s-100.3-3.6-80.4,1.8s81.3,2.7,70.5,0s-96.7-1.8-70.5,5.4s91.2,4.5,75,2.7
	s-110.2,0.9-73.2,5.5s87.6,0.9,62.3,0s-84-3.6-57.8,5.4s80.4-2.7,60.5-1.8s-88.5,0-55.1,8.1s75-2.7,52.4-2.7S32,64.2,48.3,70.5
	c16.3,6.3,70.5,3.6,52.4-1.8s-73.2-0.9-53.3,5.4s72.2-3.6,47.8-3.6S24.8,75,44.6,81.4s70.5-4.5,56-5.4s-70.5,2.7-49.7,9.9
	s55.1-1.8,43.4-2.7s-58.7,0.9-40.6,8.1c18.1,7.2,57.8-0.9,38.8-2.7c-19-1.8-51.5,1.8-37,8.1s48.8,5.4,37.9-1.8
	c-10.8-7.2-51.5-0.9-36.1,6.3c15.4,7.2,47.9-5.4,33.4-3.6s-46.1,3.6-33.4,9s50.6,0.9,32.5,0S51,107.5,59.1,112s41.6,4.5,30.7,1.8
	s-35.2,0-27.1,5.4s31.6,3.6,25.3,0s-31.6-2.7-22.6,3.6s29.8,3.6,21.7,1.8c-8.1-1.8-29.8,0.9-18.1,6.3"/>
</svg>
