<?xml version="1.0" encoding="utf-8"?>
<!-- Generator: Adobe Illustrator 27.5.0, SVG Export Plug-In . SVG Version: 6.00 Build 0)  -->
<svg version="1.1" id="Layer_1" xmlns="http://www.w3.org/2000/svg" xmlns:xlink="http://www.w3.org/1999/xlink" x="0px" y="0px"
	 viewBox="0 0 150 150" style="enable-background:new 0 0 150 150;" xml:space="preserve">
<style type="text/css">
	.st0{fill:#E88EE8;}
	.st1{fill:none;}
	.st2{fill:#231F20;}
	.st3{font-family:'ArialMT';}
	.st4{font-size:88.89px;}
</style>
<g>
	<rect x="10" y="10" class="st0" width="130" height="130"/>
	<g>
		<g>
			<g>
				<g>
					<g>
						<rect x="2.5" y="119.7" class="st1" width="15" height="12.8"/>
					</g>
					<rect x="9.5" y="120.7" class="st2" width="1.5" height="2.4"/>
					<rect x="9.5" y="124.9" class="st2" width="1.5" height="2.4"/>
					<rect x="9.5" y="129.2" class="st2" width="1.5" height="2.4"/>
				</g>
			</g>
			<g>
				<g>
					<g>
						<rect x="2.5" y="106.9" class="st1" width="15" height="12.8"/>
					</g>
					<rect x="9.5" y="107.9" class="st2" width="1.5" height="2.4"/>
					<rect x="9.5" y="112.1" class="st2" width="1.5" height="2.4"/>
					<rect x="9.5" y="116.4" class="st2" width="1.5" height="2.4"/>
				</g>
			</g>
			<g>
				<g>
					<g>
						<rect x="2.5" y="94.2" class="st1" width="15" height="12.8"/>
					</g>
					<rect x="9.5" y="95.1" class="st2" width="1.5" height="2.4"/>
					<rect x="9.5" y="99.4" class="st2" width="1.5" height="2.4"/>
					<rect x="9.5" y="103.6" class="st2" width="1.5" height="2.4"/>
				</g>
			</g>
			<g>
				<g>
					<g>
						<rect x="2.5" y="81.4" class="st1" width="15" height="12.8"/>
					</g>
					<rect x="9.5" y="82.3" class="st2" width="1.5" height="2.4"/>
					<rect x="9.5" y="86.6" class="st2" width="1.5" height="2.4"/>
					<rect x="9.5" y="90.8" class="st2" width="1.5" height="2.4"/>
				</g>
			</g>
			<g>
				<g>
					<g>
						<rect x="2.5" y="68.6" class="st1" width="15" height="12.8"/>
					</g>
					<rect x="9.5" y="69.6" class="st2" width="1.5" height="2.4"/>
					<rect x="9.5" y="73.8" class="st2" width="1.5" height="2.4"/>
					<rect x="9.5" y="78" class="st2" width="1.5" height="2.4"/>
				</g>
			</g>
			<g>
				<g>
					<g>
						<rect x="2.5" y="55.8" class="st1" width="15" height="12.8"/>
					</g>
					<rect x="9.5" y="56.8" class="st2" width="1.5" height="2.4"/>
					<rect x="9.5" y="61" class="st2" width="1.5" height="2.4"/>
					<rect x="9.5" y="65.3" class="st2" width="1.5" height="2.4"/>
				</g>
			</g>
			<g>
				<g>
					<g>
						<rect x="2.5" y="43.1" class="st1" width="15" height="12.8"/>
					</g>
					<rect x="9.5" y="44" class="st2" width="1.5" height="2.4"/>
					<rect x="9.5" y="48.3" class="st2" width="1.5" height="2.4"/>
					<rect x="9.5" y="52.5" class="st2" width="1.5" height="2.4"/>
				</g>
			</g>
			<g>
				<g>
					<g>
						<rect x="2.5" y="30.3" class="st1" width="15" height="12.8"/>
					</g>
					<rect x="9.5" y="31.2" class="st2" width="1.5" height="2.4"/>
					<rect x="9.5" y="35.5" class="st2" width="1.5" height="2.4"/>
					<rect x="9.5" y="39.7" class="st2" width="1.5" height="2.4"/>
				</g>
			</g>
			<g>
				<g>
					<g>
						<rect x="2.5" y="17.5" class="st1" width="15" height="12.8"/>
					</g>
					<rect x="9.5" y="18.4" class="st2" width="1.5" height="2.4"/>
					<rect x="9.5" y="22.7" class="st2" width="1.5" height="2.4"/>
					<rect x="9.5" y="26.9" class="st2" width="1.5" height="2.4"/>
				</g>
			</g>
			<g>
				<g>
					<g>
						<rect x="17.5" y="2.5" class="st1" width="12.8" height="15"/>
					</g>
					<rect x="27" y="9.5" class="st2" width="2.4" height="1.5"/>
					<rect x="22.7" y="9.5" class="st2" width="2.4" height="1.5"/>
					<rect x="18.5" y="9.5" class="st2" width="2.4" height="1.5"/>
				</g>
			</g>
			<g>
				<g>
					<g>
						<rect x="30.3" y="2.5" class="st1" width="12.8" height="15"/>
					</g>
					<rect x="39.7" y="9.5" class="st2" width="2.4" height="1.5"/>
					<rect x="35.5" y="9.5" class="st2" width="2.4" height="1.5"/>
					<rect x="31.2" y="9.5" class="st2" width="2.4" height="1.5"/>
				</g>
			</g>
			<g>
				<g>
					<g>
						<rect x="43.1" y="2.5" class="st1" width="12.8" height="15"/>
					</g>
					<rect x="52.5" y="9.5" class="st2" width="2.4" height="1.5"/>
					<rect x="48.3" y="9.5" class="st2" width="2.4" height="1.5"/>
					<rect x="44" y="9.5" class="st2" width="2.4" height="1.5"/>
				</g>
			</g>
			<g>
				<g>
					<g>
						<rect x="55.8" y="2.5" class="st1" width="12.8" height="15"/>
					</g>
					<rect x="65.3" y="9.5" class="st2" width="2.4" height="1.5"/>
					<rect x="61" y="9.5" class="st2" width="2.4" height="1.5"/>
					<rect x="56.8" y="9.5" class="st2" width="2.4" height="1.5"/>
				</g>
			</g>
			<g>
				<g>
					<g>
						<rect x="68.6" y="2.5" class="st1" width="12.8" height="15"/>
					</g>
					<rect x="78.1" y="9.5" class="st2" width="2.4" height="1.5"/>
					<rect x="73.8" y="9.5" class="st2" width="2.4" height="1.5"/>
					<rect x="69.6" y="9.5" class="st2" width="2.4" height="1.5"/>
				</g>
			</g>
			<g>
				<g>
					<g>
						<rect x="81.4" y="2.5" class="st1" width="12.8" height="15"/>
					</g>
					<rect x="90.9" y="9.5" class="st2" width="2.4" height="1.5"/>
					<rect x="86.6" y="9.5" class="st2" width="2.4" height="1.5"/>
					<rect x="82.4" y="9.5" class="st2" width="2.4" height="1.5"/>
				</g>
			</g>
			<g>
				<g>
					<g>
						<rect x="94.2" y="2.5" class="st1" width="12.8" height="15"/>
					</g>
					<rect x="103.6" y="9.5" class="st2" width="2.4" height="1.5"/>
					<rect x="99.4" y="9.5" class="st2" width="2.4" height="1.5"/>
					<rect x="95.1" y="9.5" class="st2" width="2.4" height="1.5"/>
				</g>
			</g>
			<g>
				<g>
					<g>
						<rect x="106.9" y="2.5" class="st1" width="12.8" height="15"/>
					</g>
					<rect x="116.4" y="9.5" class="st2" width="2.4" height="1.5"/>
					<rect x="112.2" y="9.5" class="st2" width="2.4" height="1.5"/>
					<rect x="107.9" y="9.5" class="st2" width="2.4" height="1.5"/>
				</g>
			</g>
			<g>
				<g>
					<g>
						<rect x="119.7" y="2.5" class="st1" width="12.8" height="15"/>
					</g>
					<rect x="129.2" y="9.5" class="st2" width="2.4" height="1.5"/>
					<rect x="124.9" y="9.5" class="st2" width="2.4" height="1.5"/>
					<rect x="120.7" y="9.5" class="st2" width="2.4" height="1.5"/>
				</g>
			</g>
			<g>
				<g>
					<g>
						<rect x="132.5" y="17.5" class="st1" width="15" height="12.8"/>
					</g>
					<rect x="139" y="27" class="st2" width="1.5" height="2.4"/>
					<rect x="139" y="22.7" class="st2" width="1.5" height="2.4"/>
					<rect x="139" y="18.5" class="st2" width="1.5" height="2.4"/>
				</g>
			</g>
			<g>
				<g>
					<g>
						<rect x="132.5" y="30.3" class="st1" width="15" height="12.8"/>
					</g>
					<rect x="139" y="39.7" class="st2" width="1.5" height="2.4"/>
					<rect x="139" y="35.5" class="st2" width="1.5" height="2.4"/>
					<rect x="139" y="31.2" class="st2" width="1.5" height="2.4"/>
				</g>
			</g>
			<g>
				<g>
					<g>
						<rect x="132.5" y="43.1" class="st1" width="15" height="12.8"/>
					</g>
					<rect x="139" y="52.5" class="st2" width="1.5" height="2.4"/>
					<rect x="139" y="48.3" class="st2" width="1.5" height="2.4"/>
					<rect x="139" y="44" class="st2" width="1.5" height="2.4"/>
				</g>
			</g>
			<g>
				<g>
					<g>
						<rect x="132.5" y="55.8" class="st1" width="15" height="12.8"/>
					</g>
					<rect x="139" y="65.3" class="st2" width="1.5" height="2.4"/>
					<rect x="139" y="61" class="st2" width="1.5" height="2.4"/>
					<rect x="139" y="56.8" class="st2" width="1.5" height="2.4"/>
				</g>
			</g>
			<g>
				<g>
					<g>
						<rect x="132.5" y="68.6" class="st1" width="15" height="12.8"/>
					</g>
					<rect x="139" y="78.1" class="st2" width="1.5" height="2.4"/>
					<rect x="139" y="73.8" class="st2" width="1.5" height="2.4"/>
					<rect x="139" y="69.6" class="st2" width="1.5" height="2.4"/>
				</g>
			</g>
			<g>
				<g>
					<g>
						<rect x="132.5" y="81.4" class="st1" width="15" height="12.8"/>
					</g>
					<rect x="139" y="90.9" class="st2" width="1.5" height="2.4"/>
					<rect x="139" y="86.6" class="st2" width="1.5" height="2.4"/>
					<rect x="139" y="82.4" class="st2" width="1.5" height="2.4"/>
				</g>
			</g>
			<g>
				<g>
					<g>
						<rect x="132.5" y="94.2" class="st1" width="15" height="12.8"/>
					</g>
					<rect x="139" y="103.6" class="st2" width="1.5" height="2.4"/>
					<rect x="139" y="99.4" class="st2" width="1.5" height="2.4"/>
					<rect x="139" y="95.1" class="st2" width="1.5" height="2.4"/>
				</g>
			</g>
			<g>
				<g>
					<g>
						<rect x="132.5" y="106.9" class="st1" width="15" height="12.8"/>
					</g>
					<rect x="139" y="116.4" class="st2" width="1.5" height="2.4"/>
					<rect x="139" y="112.2" class="st2" width="1.5" height="2.4"/>
					<rect x="139" y="107.9" class="st2" width="1.5" height="2.4"/>
				</g>
			</g>
			<g>
				<g>
					<g>
						<rect x="132.5" y="119.7" class="st1" width="15" height="12.8"/>
					</g>
					<rect x="139" y="129.2" class="st2" width="1.5" height="2.4"/>
					<rect x="139" y="124.9" class="st2" width="1.5" height="2.4"/>
					<rect x="139" y="120.7" class="st2" width="1.5" height="2.4"/>
				</g>
			</g>
			<g>
				<g>
					<g>
						<rect x="119.7" y="132.5" class="st1" width="12.8" height="15"/>
					</g>
					<rect x="120.7" y="139" class="st2" width="2.4" height="1.5"/>
					<rect x="124.9" y="139" class="st2" width="2.4" height="1.5"/>
					<rect x="129.2" y="139" class="st2" width="2.4" height="1.5"/>
				</g>
			</g>
			<g>
				<g>
					<g>
						<rect x="106.9" y="132.5" class="st1" width="12.8" height="15"/>
					</g>
					<rect x="107.9" y="139" class="st2" width="2.4" height="1.5"/>
					<rect x="112.1" y="139" class="st2" width="2.4" height="1.5"/>
					<rect x="116.4" y="139" class="st2" width="2.4" height="1.5"/>
				</g>
			</g>
			<g>
				<g>
					<g>
						<rect x="94.2" y="132.5" class="st1" width="12.8" height="15"/>
					</g>
					<rect x="95.1" y="139" class="st2" width="2.4" height="1.5"/>
					<rect x="99.4" y="139" class="st2" width="2.4" height="1.5"/>
					<rect x="103.6" y="139" class="st2" width="2.4" height="1.5"/>
				</g>
			</g>
			<g>
				<g>
					<g>
						<rect x="81.4" y="132.5" class="st1" width="12.8" height="15"/>
					</g>
					<rect x="82.3" y="139" class="st2" width="2.4" height="1.5"/>
					<rect x="86.6" y="139" class="st2" width="2.4" height="1.5"/>
					<rect x="90.8" y="139" class="st2" width="2.4" height="1.5"/>
				</g>
			</g>
			<g>
				<g>
					<g>
						<rect x="68.6" y="132.5" class="st1" width="12.8" height="15"/>
					</g>
					<rect x="69.6" y="139" class="st2" width="2.4" height="1.5"/>
					<rect x="73.8" y="139" class="st2" width="2.4" height="1.5"/>
					<rect x="78" y="139" class="st2" width="2.4" height="1.5"/>
				</g>
			</g>
			<g>
				<g>
					<g>
						<rect x="55.8" y="132.5" class="st1" width="12.8" height="15"/>
					</g>
					<rect x="56.8" y="139" class="st2" width="2.4" height="1.5"/>
					<rect x="61" y="139" class="st2" width="2.4" height="1.5"/>
					<rect x="65.3" y="139" class="st2" width="2.4" height="1.5"/>
				</g>
			</g>
			<g>
				<g>
					<g>
						<rect x="43.1" y="132.5" class="st1" width="12.8" height="15"/>
					</g>
					<rect x="44" y="139" class="st2" width="2.4" height="1.5"/>
					<rect x="48.3" y="139" class="st2" width="2.4" height="1.5"/>
					<rect x="52.5" y="139" class="st2" width="2.4" height="1.5"/>
				</g>
			</g>
			<g>
				<g>
					<g>
						<rect x="30.3" y="132.5" class="st1" width="12.8" height="15"/>
					</g>
					<rect x="31.2" y="139" class="st2" width="2.4" height="1.5"/>
					<rect x="35.5" y="139" class="st2" width="2.4" height="1.5"/>
					<rect x="39.7" y="139" class="st2" width="2.4" height="1.5"/>
				</g>
			</g>
			<g>
				<g>
					<g>
						<rect x="17.5" y="132.5" class="st1" width="12.8" height="15"/>
					</g>
					<rect x="18.4" y="139" class="st2" width="2.4" height="1.5"/>
					<rect x="22.7" y="139" class="st2" width="2.4" height="1.5"/>
					<rect x="26.9" y="139" class="st2" width="2.4" height="1.5"/>
				</g>
			</g>
			<g>
				<rect x="9.4" y="14" class="st2" width="1.5" height="2.5"/>
				<polygon class="st2" points="9.4,9.5 9.4,12 10.9,12 10.9,11 11.9,11 11.9,9.5 				"/>
				<rect x="13.9" y="9.5" class="st2" width="2.5" height="1.5"/>
			</g>
			<g>
				<rect x="133.5" y="9.4" class="st2" width="2.5" height="1.5"/>
				<polygon class="st2" points="140.5,9.4 138,9.4 138,10.9 139,10.9 139,11.9 140.5,11.9 				"/>
				<rect x="139" y="13.9" class="st2" width="1.5" height="2.5"/>
			</g>
			<g>
				<rect x="139.1" y="133.5" class="st2" width="1.5" height="2.5"/>
				<polygon class="st2" points="140.6,140.5 140.6,138 139.1,138 139.1,139 138.1,139 138.1,140.5 				"/>
				<rect x="133.6" y="139" class="st2" width="2.5" height="1.5"/>
			</g>
			<g>
				<rect x="14" y="139.1" class="st2" width="2.5" height="1.5"/>
				<polygon class="st2" points="9.5,140.6 12,140.6 12,139.1 11,139.1 11,138.1 9.5,138.1 				"/>
				<rect x="9.5" y="133.6" class="st2" width="1.5" height="2.5"/>
			</g>
		</g>
	</g>
</g>
<text transform="matrix(1 0 0 1 48.3 107)" class="st3 st4">7</text>
</svg>
